<svg xmlns="http://www.w3.org/2000/svg" width="39.834" height="51.575" viewBox="0 0 53.412 53.413"><path d="M1085.973,681.425h-30.98a4.433,4.433,0,0,1-4.428-4.428V634.277a4.432,4.432,0,0,1,4.428-4.427h30.98a4.432,4.432,0,0,1,4.427,4.427V677A4.433,4.433,0,0,1,1085.973,681.425Zm-30.98-50.1a2.96,2.96,0,0,0-2.957,2.956V677a2.96,2.96,0,0,0,2.957,2.957h30.98A2.96,2.96,0,0,0,1088.93,677V634.277a2.96,2.96,0,0,0-2.957-2.956Z" transform="translate(-1050.566 -629.85)" fill="#fff"/><path d="M1090.126,636.335h-27.5a.736.736,0,0,1-.735-.735v-5.015a.736.736,0,0,1,.735-.735h27.5a.735.735,0,0,1,.735.735V635.6A.735.735,0,0,1,1090.126,636.335Zm-26.768-1.471h26.033v-3.544h-26.033Z" transform="translate(-1056.457 -629.85)" fill="#fff"/><path d="M1069.339,665.7a.733.733,0,0,1-.52-.215l-2.11-2.111a.735.735,0,0,1,1.039-1.04l1.591,1.592,3.7-3.7a.735.735,0,0,1,1.04,1.039l-4.221,4.222A.733.733,0,0,1,1069.339,665.7Z" transform="translate(-1058.854 -645.545)" fill="#fff"/><path d="M1069.339,687.707a.732.732,0,0,1-.52-.215l-2.11-2.11a.735.735,0,0,1,1.039-1.04l1.591,1.592,3.7-3.7a.735.735,0,1,1,1.04,1.04l-4.221,4.221A.732.732,0,0,1,1069.339,687.707Z" transform="translate(-1058.854 -656.995)" fill="#fff"/><path d="M1069.339,709.71a.732.732,0,0,1-.52-.215l-2.11-2.11a.735.735,0,0,1,1.039-1.04l1.591,1.591,3.7-3.7a.735.735,0,0,1,1.04,1.04l-4.221,4.221A.732.732,0,0,1,1069.339,709.71Z" transform="translate(-1058.854 -668.444)" fill="#fff"/><path d="M1102.335,670.284h-12a.735.735,0,1,1,0-1.47h12a.735.735,0,1,1,0,1.47Z" transform="translate(-1070.875 -650.125)" fill="#fff"/><path d="M1102.335,692.287h-12a.735.735,0,1,1,0-1.47h12a.735.735,0,1,1,0,1.47Z" transform="translate(-1070.875 -661.574)" fill="#fff"/><path d="M1102.335,714.29h-12a.735.735,0,1,1,0-1.47h12a.735.735,0,1,1,0,1.47Z" transform="translate(-1070.875 -673.024)" fill="#fff"/></svg>