<svg xmlns="http://www.w3.org/2000/svg" width="46.013" height="45.289" viewBox="0 0 46.013 45.289"><g transform="translate(0)"><g transform="translate(18.874)"><path d="M4037.582,1415.116a4.135,4.135,0,1,1,4.134-4.135A4.139,4.139,0,0,1,4037.582,1415.116Zm0-6.975a2.841,2.841,0,1,0,2.84,2.841A2.844,2.844,0,0,0,4037.582,1408.141Z" transform="translate(-4033.447 -1406.847)" fill="#fff"/></g><g transform="translate(0 12.529)"><path d="M4000.351,1469.292a3.033,3.033,0,0,0-4.781,0,3.042,3.042,0,0,1-3.038-3.038v-13.036a2.428,2.428,0,0,1-1.006.329,2.548,2.548,0,0,1-2.8-2.536V1440.98a4.453,4.453,0,0,1,4.448-4.448h9.48a.647.647,0,0,1,.609.865,3.463,3.463,0,0,0-.206,1.169v10.9a1.387,1.387,0,0,0,.226.751.651.651,0,0,1,.1.344v.733h0v14.964A3.042,3.042,0,0,1,4000.351,1469.292Zm-1.744-3.038a1.744,1.744,0,0,0,3.488,0v-15.318c0-.012,0-.023,0-.035,0-.053,0-.109,0-.166a2.679,2.679,0,0,1-.327-1.274v-10.9a4.621,4.621,0,0,1,.06-.74h-8.649a3.158,3.158,0,0,0-3.154,3.154v10.031a1.254,1.254,0,0,0,1.379,1.249,1.309,1.309,0,0,0,1.129-1.33v-6.886a.647.647,0,1,1,1.294,0v22.211a1.744,1.744,0,0,0,3.489,0v-11.565a.647.647,0,0,1,1.293,0Z" transform="translate(-3988.73 -1436.532)" fill="#fff"/></g><g transform="translate(5.373 3.518)"><path d="M4005.318,1422.9a3.858,3.858,0,1,1,3.857-3.857A3.862,3.862,0,0,1,4005.318,1422.9Zm0-6.421a2.564,2.564,0,1,0,2.563,2.564A2.566,2.566,0,0,0,4005.318,1416.476Z" transform="translate(-4001.46 -1415.182)" fill="#fff"/></g><g transform="translate(31.354 12.529)"><path d="M4070.838,1469.292a3.033,3.033,0,0,0-4.782,0,3.042,3.042,0,0,1-3.038-3.038v-15.325a.652.652,0,0,1,.029-.191,7.277,7.277,0,0,0,.3-1.277v-10.9a3.481,3.481,0,0,0-.206-1.17.647.647,0,0,1,.609-.864h9.479a4.453,4.453,0,0,1,4.448,4.448v10.031a2.548,2.548,0,0,1-2.8,2.536,2.413,2.413,0,0,1-1-.33v13.037A3.042,3.042,0,0,1,4070.838,1469.292Zm-1.744-3.038a1.744,1.744,0,0,0,3.488,0v-15.271c0-.018,0-.036,0-.054v-6.886a.647.647,0,1,1,1.294,0v6.84c0,.017,0,.035,0,.052a1.309,1.309,0,0,0,1.128,1.325,1.254,1.254,0,0,0,1.379-1.249V1440.98a3.158,3.158,0,0,0-3.154-3.154h-8.647a4.711,4.711,0,0,1,.059.74v10.9a7.24,7.24,0,0,1-.329,1.565v15.228a1.744,1.744,0,0,0,3.488,0v-11.565a.647.647,0,0,1,1.294,0Z" transform="translate(-4063.018 -1436.532)" fill="#fff"/></g><g transform="translate(13.038 9.787)"><path d="M4032.187,1465.507a3.24,3.24,0,0,0-5.193,0,3.248,3.248,0,0,1-3.244-3.244V1448a2.576,2.576,0,0,1-1.154.4,2.732,2.732,0,0,1-2.976-2.7v-10.9a4.79,4.79,0,0,1,4.775-4.776h10.388a4.785,4.785,0,0,1,4.494,3.171h0a4.768,4.768,0,0,1,.282,1.6v10.9a2.733,2.733,0,0,1-2.976,2.7,2.57,2.57,0,0,1-1.153-.4v14.259A3.248,3.248,0,0,1,4032.187,1465.507Zm-2.6-3.891a.647.647,0,0,1,.647.647,1.95,1.95,0,1,0,3.9,0v-16.637a.648.648,0,0,1,.646-.647h0a.647.647,0,0,1,.647.645,1.479,1.479,0,0,0,1.276,1.495,1.417,1.417,0,0,0,1.332-.656,1.39,1.39,0,0,0,.228-.755v-10.9a3.494,3.494,0,0,0-3.482-3.481H4024.4a3.5,3.5,0,0,0-3.482,3.481v10.9a1.386,1.386,0,0,0,.226.751,1.416,1.416,0,0,0,1.334.661,1.478,1.478,0,0,0,1.277-1.5.647.647,0,1,1,1.293,0v16.644a1.95,1.95,0,1,0,3.9,0A.648.648,0,0,1,4029.59,1461.616Z" transform="translate(-4019.62 -1430.036)" fill="#fff"/></g><g transform="translate(32.926 3.518)"><path d="M4070.6,1422.9a3.858,3.858,0,1,1,3.858-3.857A3.862,3.862,0,0,1,4070.6,1422.9Zm0-6.421a2.564,2.564,0,1,0,2.564,2.564A2.567,2.567,0,0,0,4070.6,1416.476Z" transform="translate(-4066.741 -1415.182)" fill="#fff"/></g><g transform="translate(22.361 28.878)"><path d="M4042.357,1489.052a.647.647,0,0,1-.647-.647v-12.489a.647.647,0,0,1,1.294,0V1488.4A.647.647,0,0,1,4042.357,1489.052Z" transform="translate(-4041.71 -1475.269)" fill="#fff"/></g><g transform="translate(17.167 16.227)"><path d="M4030.05,1455.084a.647.647,0,0,1-.646-.647v-8.5a.647.647,0,1,1,1.293,0v8.5A.647.647,0,0,1,4030.05,1455.084Z" transform="translate(-4029.404 -1445.295)" fill="#fff"/></g><g transform="translate(27.554 16.227)"><path d="M4054.662,1455.091a.647.647,0,0,1-.647-.647v-8.5a.647.647,0,0,1,1.294,0v8.5A.647.647,0,0,1,4054.662,1455.091Z" transform="translate(-4054.015 -1445.295)" fill="#fff"/></g></g></svg>