<svg xmlns="http://www.w3.org/2000/svg" width="53.412" height="53.413" viewBox="0 0 53.412 53.413"><path d="M1970.328,680.511a26.707,26.707,0,1,1,26.706-26.707A26.737,26.737,0,0,1,1970.328,680.511Zm0-51.964a25.258,25.258,0,1,0,25.258,25.257A25.286,25.286,0,0,0,1970.328,628.547Z" transform="translate(-1943.622 -627.098)" fill="#fff"/><path d="M1999.328,641.512a.724.724,0,0,1-.724-.724v-3.271a.724.724,0,1,1,1.448,0v3.271A.724.724,0,0,1,1999.328,641.512Z" transform="translate(-1972.622 -632.212)" fill="#fff"/><path d="M1978.321,647.142a.723.723,0,0,1-.628-.362l-1.635-2.832a.724.724,0,1,1,1.254-.724l1.635,2.832a.724.724,0,0,1-.626,1.086Z" transform="translate(-1960.679 -635.412)" fill="#fff"/><path d="M1962.94,662.521a.717.717,0,0,1-.362-.1l-2.833-1.636a.724.724,0,1,1,.724-1.254l2.833,1.636a.724.724,0,0,1-.363,1.352Z" transform="translate(-1951.935 -644.155)" fill="#fff"/><path d="M1957.312,683.529h-3.271a.724.724,0,0,1,0-1.448h3.271a.724.724,0,0,1,0,1.448Z" transform="translate(-1948.735 -656.099)" fill="#fff"/><path d="M1960.109,704.348a.724.724,0,0,1-.363-1.351l2.833-1.635a.724.724,0,1,1,.723,1.254l-2.833,1.635A.719.719,0,0,1,1960.109,704.348Z" transform="translate(-1951.935 -666.217)" fill="#fff"/><path d="M1976.684,719.588a.724.724,0,0,1-.626-1.086l1.635-2.833a.724.724,0,1,1,1.254.724l-1.635,2.833A.723.723,0,0,1,1976.684,719.588Z" transform="translate(-1960.679 -673.624)" fill="#fff"/><path d="M1999.328,725.166a.724.724,0,0,1-.724-.724v-3.271a.724.724,0,1,1,1.448,0v3.271A.724.724,0,0,1,1999.328,725.166Z" transform="translate(-1972.622 -676.335)" fill="#fff"/><path d="M2020.148,719.588a.723.723,0,0,1-.628-.362l-1.635-2.833a.724.724,0,0,1,1.254-.724l1.635,2.833a.724.724,0,0,1-.626,1.086Z" transform="translate(-1982.74 -673.624)" fill="#fff"/><path d="M2035.386,704.348a.718.718,0,0,1-.361-.1l-2.833-1.635a.724.724,0,1,1,.723-1.254l2.832,1.635a.724.724,0,0,1-.362,1.351Z" transform="translate(-1990.147 -666.217)" fill="#fff"/><path d="M2040.966,683.529h-3.271a.724.724,0,0,1,0-1.448h3.271a.724.724,0,0,1,0,1.448Z" transform="translate(-1992.859 -656.099)" fill="#fff"/><path d="M2032.555,662.521a.724.724,0,0,1-.363-1.352l2.832-1.636a.724.724,0,1,1,.724,1.254l-2.832,1.636A.719.719,0,0,1,2032.555,662.521Z" transform="translate(-1990.147 -644.155)" fill="#fff"/><path d="M2018.511,647.142a.724.724,0,0,1-.626-1.086l1.635-2.832a.724.724,0,1,1,1.254.724l-1.635,2.832A.723.723,0,0,1,2018.511,647.142Z" transform="translate(-1982.74 -635.412)" fill="#fff"/><path d="M1999.328,669.9a.725.725,0,0,1-.724-.724V656.971a.724.724,0,1,1,1.448,0v10.943l6.573-3.861a.724.724,0,1,1,.733,1.248l-7.663,4.5A.73.73,0,0,1,1999.328,669.9Z" transform="translate(-1972.622 -642.473)" fill="#fff"/></svg>