<svg xmlns="http://www.w3.org/2000/svg" width="54.232" height="51.575" viewBox="0 0 54.232 51.575"><path d="M2897.735,671.177H2851.56a4.034,4.034,0,0,1-4.029-4.029V629.871a4.034,4.034,0,0,1,4.029-4.029h46.174a4.034,4.034,0,0,1,4.029,4.029v37.277A4.034,4.034,0,0,1,2897.735,671.177Zm-46.174-43.713a2.41,2.41,0,0,0-2.406,2.407v37.277a2.41,2.41,0,0,0,2.406,2.407h46.174a2.41,2.41,0,0,0,2.407-2.407V629.871a2.41,2.41,0,0,0-2.407-2.407Z" transform="translate(-2847.531 -625.842)" fill="#fff"/><path d="M2871.653,731.476a.811.811,0,0,1-.811-.811v-6.24a.811.811,0,0,1,1.622,0v6.24A.811.811,0,0,1,2871.653,731.476Z" transform="translate(-2860.42 -679.901)" fill="#fff"/><path d="M2942.705,731.476a.811.811,0,0,1-.811-.811v-6.24a.811.811,0,0,1,1.623,0v6.24A.812.812,0,0,1,2942.705,731.476Z" transform="translate(-2899.705 -679.901)" fill="#fff"/><path d="M2888.873,642.73a.807.807,0,0,1-.573-.238l-4.194-4.194a.811.811,0,1,1,1.148-1.147l4.194,4.194a.811.811,0,0,1-.574,1.385Z" transform="translate(-2867.622 -631.964)" fill="#fff"/><path d="M2884.68,642.73a.811.811,0,0,1-.574-1.385l4.194-4.194a.811.811,0,0,1,1.147,1.147l-4.194,4.194A.808.808,0,0,1,2884.68,642.73Z" transform="translate(-2867.622 -631.964)" fill="#fff"/><path d="M2917.922,702.243a.809.809,0,0,1-.573-.237l-4.194-4.194a.811.811,0,1,1,1.147-1.148l4.193,4.194a.811.811,0,0,1-.573,1.385Z" transform="translate(-2883.684 -664.869)" fill="#fff"/><path d="M2913.729,702.243a.811.811,0,0,1-.573-1.385l4.194-4.194a.811.811,0,0,1,1.147,1.148l-4.193,4.194A.81.81,0,0,1,2913.729,702.243Z" transform="translate(-2883.684 -664.869)" fill="#fff"/><path d="M2929.789,677.751a3.479,3.479,0,1,1,3.479-3.479A3.483,3.483,0,0,1,2929.789,677.751Zm0-5.335a1.856,1.856,0,1,0,1.856,1.856A1.858,1.858,0,0,0,2929.789,672.416Z" transform="translate(-2891.089 -650.696)" fill="#fff"/><path d="M2874.321,679.66a3.479,3.479,0,1,1,3.479-3.479A3.482,3.482,0,0,1,2874.321,679.66Zm0-5.335a1.856,1.856,0,1,0,1.856,1.856A1.858,1.858,0,0,0,2874.321,674.325Z" transform="translate(-2860.42 -651.751)" fill="#fff"/><path d="M2865.842,676.94a.811.811,0,0,1,0-1.622c.52,0,12.733-.174,13-12.53.246-11.366,8.711-13.917,21.344-14.25a.811.811,0,0,1,.043,1.622c-14.216.375-19.573,3.807-19.764,12.663C2880.161,676.779,2865.985,676.94,2865.842,676.94Z" transform="translate(-2857.207 -638.391)" fill="#fff"/><path d="M2936.007,650.016a.811.811,0,0,1-.495-1.455l2.793-2.146-2.778-2.032a.811.811,0,0,1,.958-1.31l3.651,2.67a.811.811,0,0,1,.015,1.3l-3.651,2.806A.811.811,0,0,1,2936.007,650.016Z" transform="translate(-2896.002 -635.283)" fill="#fff"/></svg>