<svg xmlns="http://www.w3.org/2000/svg" width="29.277" height="29.277" viewBox="0 0 29.277 29.277"><path d="M26.987,1.928H7.431a4.875,4.875,0,0,0-4.86,4.86V26.345a4.875,4.875,0,0,0,4.86,4.86H26.987a4.875,4.875,0,0,0,4.86-4.86V6.788a4.875,4.875,0,0,0-4.86-4.86ZM11.943,14.737H22.476a5.575,5.575,0,1,1-10.533,0Zm16.245,0V25.716a1.835,1.835,0,0,1-1.83,1.83H8.06a1.835,1.835,0,0,1-1.83-1.83V14.737H9.092a8.32,8.32,0,1,0,16.233,0h2.862Zm0-6.406a.918.918,0,0,1-.915.915h-1.83a.918.918,0,0,1-.915-.915V6.5a.918.918,0,0,1,.915-.915h1.83a.918.918,0,0,1,.915.915Z" transform="translate(-2.571 -1.928)" fill="#1e224c"/></svg>