<svg xmlns="http://www.w3.org/2000/svg" width="29.895" height="29.895" viewBox="0 0 29.895 29.895"><path d="M27.76,2.25H2.129A2.145,2.145,0,0,0,0,4.405V29.99a2.145,2.145,0,0,0,2.129,2.155H27.76A2.15,2.15,0,0,0,29.9,29.99V4.405A2.15,2.15,0,0,0,27.76,2.25ZM9.035,27.875H4.6V13.608H9.042V27.875ZM6.82,11.659A2.569,2.569,0,1,1,9.389,9.09,2.57,2.57,0,0,1,6.82,11.659ZM25.645,27.875H21.214v-6.94c0-1.655-.033-3.784-2.3-3.784-2.309,0-2.663,1.8-2.663,3.664v7.06H11.818V13.608h4.251v1.949h.06a4.667,4.667,0,0,1,4.2-2.3c4.484,0,5.318,2.956,5.318,6.8Z" transform="translate(0 -2.25)" fill="#1e224c"/></svg>