<?xml version="1.0" standalone="no"?>
<!DOCTYPE svg PUBLIC "-//W3C//DTD SVG 20010904//EN"
 "http://www.w3.org/TR/2001/REC-SVG-20010904/DTD/svg10.dtd">
<svg version="1.0" xmlns="http://www.w3.org/2000/svg"
 width="52.000000pt" height="36.000000pt" viewBox="0 0 52.000000 36.000000"
 preserveAspectRatio="xMidYMid meet">

<g transform="translate(0.000000,36.000000) scale(0.100000,-0.100000)"
fill="#000000" stroke="none">
<path d="M40 270 c44 -87 61 -97 98 -57 30 32 29 81 -3 112 -20 21 -34 25 -80
25 l-55 0 40 -80z"/>
<path d="M270 328 c-50 -26 -90 -89 -90 -144 0 -51 40 -115 90 -141 36 -19 58
-23 137 -23 54 0 93 4 91 9 -1 5 -37 79 -78 165 -48 100 -80 156 -90 156 -9 0
-36 -10 -60 -22z"/>
</g>
</svg>
