<svg xmlns="http://www.w3.org/2000/svg" width="53.503" height="45.289" viewBox="0 0 53.503 45.289"><g transform="translate(-2172.002 -636.934)"><g transform="translate(2172.002 636.934)"><path d="M2207.507,682.223h-34.761a.744.744,0,0,1-.743-.743v-43.8a.744.744,0,0,1,.743-.744h34.761a.744.744,0,0,1,.743.744v14.045a.744.744,0,1,1-1.487,0v-13.3h-33.275v42.315h33.275V663.5a.744.744,0,1,1,1.487,0v17.984A.744.744,0,0,1,2207.507,682.223Z" transform="translate(-2172.002 -636.934)" fill="#ae2a00"/></g><g transform="translate(2179.141 648.236)"><g transform="translate(0)"><path d="M2194.375,668.634h-6.914a.744.744,0,0,1-.743-.743v-6.914a.744.744,0,0,1,.743-.744h6.914a.744.744,0,0,1,.744.744v6.914A.744.744,0,0,1,2194.375,668.634Zm-6.171-1.487h5.428V661.72H2188.2Z" transform="translate(-2186.718 -660.233)" fill="#ae2a00"/><g transform="translate(0 14.283)"><path d="M2194.375,698.078h-6.914a.744.744,0,0,1-.743-.743v-6.914a.744.744,0,0,1,.743-.744h6.914a.744.744,0,0,1,.744.744v6.914A.744.744,0,0,1,2194.375,698.078Zm-6.171-1.487h5.428v-5.426H2188.2Z" transform="translate(-2186.718 -689.677)" fill="#ae2a00"/></g></g><g transform="translate(11.735 6.914)"><path d="M2218.258,675.973h-6.607a.743.743,0,0,1,0-1.487h6.607a.743.743,0,0,1,0,1.487Z" transform="translate(-2210.908 -674.486)" fill="#ae2a00"/></g><g transform="translate(11.735 21.197)"><path d="M2218.258,705.416h-6.607a.743.743,0,0,1,0-1.487h6.607a.743.743,0,0,1,0,1.487Z" transform="translate(-2210.908 -703.929)" fill="#ae2a00"/></g></g><g transform="translate(2197.497 639.289)"><g transform="translate(0 3.841)"><path d="M2225.3,673.874a.743.743,0,0,1-.714-.951l2.09-7.2a.745.745,0,0,1,.189-.319l15.487-15.487a.764.764,0,0,1,1.051,0l5.111,5.111a.744.744,0,0,1,0,1.052l-15.487,15.487a.744.744,0,0,1-.318.188l-7.2,2.091A.76.76,0,0,1,2225.3,673.874Zm2.751-7.554-1.66,5.72,5.72-1.661,14.826-14.826-4.059-4.06Z" transform="translate(-2224.558 -649.707)" fill="#ae2a00"/></g><g transform="translate(2.091 19.32)"><path d="M2234.722,688.213a.741.741,0,0,1-.525-.218l-5.111-5.111a.743.743,0,0,1,1.051-1.052l5.111,5.111a.743.743,0,0,1-.526,1.269Z" transform="translate(-2228.868 -681.615)" fill="#ae2a00"/></g><g transform="translate(17.578 0)"><path d="M2266.647,652.219a.74.74,0,0,1-.525-.217l-5.111-5.111a.744.744,0,0,1,0-1.052l3.833-3.833a.743.743,0,0,1,1.051,0l5.111,5.111a.744.744,0,0,1,0,1.052L2267.173,652A.742.742,0,0,1,2266.647,652.219Zm-4.059-5.854,4.059,4.06,2.782-2.782-4.06-4.06Z" transform="translate(-2260.793 -641.788)" fill="#ae2a00"/></g></g></g></svg>