<svg xmlns="http://www.w3.org/2000/svg" width="73.971" height="45.289" viewBox="0 0 73.971 45.289"><g transform="translate(-4649.55 -1220.527)"><g transform="translate(4649.55 1220.527)"><g transform="translate(0 43.492)"><path d="M4710.878,1310.194h-60.43a.9.9,0,1,1,0-1.8h60.43a.9.9,0,0,1,0,1.8Z" transform="translate(-4649.55 -1308.398)" fill="#ae2a00"/></g><g transform="translate(3.984)"><g transform="translate(0 21.724)"><path d="M4672.063,1287.982H4658.5a.9.9,0,0,1-.9-.9v-21.768a.9.9,0,0,1,.9-.9h13.566a.9.9,0,0,1,.9.9v21.768A.9.9,0,0,1,4672.063,1287.982Zm-12.668-1.8h11.771v-19.972H4659.4Z" transform="translate(-4657.599 -1264.417)" fill="#ae2a00"/></g><g transform="translate(19.448 13.856)"><path d="M4711.355,1279.954H4697.79a.9.9,0,0,1-.9-.9v-29.637a.9.9,0,0,1,.9-.9h13.566a.9.9,0,1,1,0,1.8h-12.668v27.84h11.77v-15.7a.9.9,0,0,1,1.8,0v16.594A.9.9,0,0,1,4711.355,1279.954Z" transform="translate(-4696.891 -1248.521)" fill="#ae2a00"/></g><g transform="translate(38.895)"><path d="M4737.08,1231.382a.9.9,0,0,1-.9-.9v-9.059a.9.9,0,0,1,.9-.9h13.566a.9.9,0,0,1,.9.9v8.735a.9.9,0,0,1-1.8,0v-7.837h-11.77v8.161A.9.9,0,0,1,4737.08,1231.382Z" transform="translate(-4736.182 -1220.527)" fill="#ae2a00"/></g><g transform="translate(38.895 33.559)"><path d="M4750.646,1300.058H4737.08a.9.9,0,0,1-.9-.9v-9.933a.9.9,0,1,1,1.8,0v9.035h11.77v-8.736a.9.9,0,1,1,1.8,0v9.634A.9.9,0,0,1,4750.646,1300.058Z" transform="translate(-4736.182 -1288.328)" fill="#ae2a00"/></g></g></g><g transform="translate(4685.516 1227.809)"><g transform="translate(0)"><path d="M4737.132,1265.075a14.918,14.918,0,1,1,14.917-14.918A14.935,14.935,0,0,1,4737.132,1265.075Zm0-28.039a13.121,13.121,0,1,0,13.121,13.121A13.137,13.137,0,0,0,4737.132,1237.036Z" transform="translate(-4722.214 -1235.24)" fill="#ae2a00"/><g transform="translate(22.587 22.597)"><path d="M4780.258,1296.3a2.988,2.988,0,0,1-2.127-.881h0l-10.021-10.02a.9.9,0,0,1,0-1.27l2.984-2.985a.925.925,0,0,1,1.271,0l10.021,10.02a3.009,3.009,0,0,1-2.128,5.136Zm-10.242-11.536,9.385,9.385h0a1.243,1.243,0,0,0,1.715,0,1.214,1.214,0,0,0,0-1.715l-9.386-9.385Z" transform="translate(-4767.847 -1280.895)" fill="#ae2a00"/></g></g></g><g transform="translate(4695.838 1233.353)"><g transform="translate(0 2.47)"><path d="M4747.577,1265.082a5.284,5.284,0,0,1-4.321-2.192.9.9,0,1,1,1.425-1.093,3.768,3.768,0,0,0,4.764,1.058.794.794,0,0,1,.081-.038,1.672,1.672,0,0,0,.906-1.757,2.135,2.135,0,0,0-1.463-1.791c-.009,0-1.581-.472-3.132-.931a3.327,3.327,0,0,1-2.686-3.417,3.208,3.208,0,0,1,1.084-2.451,5.178,5.178,0,0,1,3.545-1.038,4.563,4.563,0,0,1,4.445,3.086.9.9,0,0,1-1.725.5,2.726,2.726,0,0,0-2.74-1.793,3.561,3.561,0,0,0-2.342.592,1.441,1.441,0,0,0-.472,1.12c-.007.653.158,1.308,1.4,1.676,1.553.46,3.127.93,3.127.93a3.943,3.943,0,0,1,2.747,3.351,3.488,3.488,0,0,1-1.977,3.566A6.043,6.043,0,0,1,4747.577,1265.082Z" transform="translate(-4743.07 -1251.431)" fill="#ae2a00"/></g><g transform="translate(3.802)"><path d="M4751.649,1250.708a.9.9,0,0,1-.9-.9v-2.47a.9.9,0,0,1,1.8,0v2.47A.9.9,0,0,1,4751.649,1250.708Z" transform="translate(-4750.751 -1246.441)" fill="#ae2a00"/></g><g transform="translate(3.802 14.481)"><path d="M4751.649,1279.965a.9.9,0,0,1-.9-.9v-2.47a.9.9,0,0,1,1.8,0v2.47A.9.9,0,0,1,4751.649,1279.965Z" transform="translate(-4750.751 -1275.698)" fill="#ae2a00"/></g></g></g></svg>