<svg xmlns="http://www.w3.org/2000/svg" width="56" height="65.054" viewBox="0 0 56 65.054"><g transform="translate(-3314.545 -1405.132)"><path d="M3337.536,1496.17a.9.9,0,0,1-.9-.9v-17.485a.9.9,0,1,1,1.8,0v17.485A.9.9,0,0,1,3337.536,1496.17Z" transform="translate(-9.112 -29.598)" fill="#ae2a00"/><path d="M3324.8,1481.2c-.143,0-.287-.006-.432-.021a4.635,4.635,0,0,1-4.074-4.65v-19.693a3.6,3.6,0,0,1-1.606.559,3.775,3.775,0,0,1-4.142-3.756v-15.166a6.655,6.655,0,0,1,6.646-6.647h14.46a6.281,6.281,0,0,1,3.853,1.4l6.146,4.783,6.5,2.065a3.481,3.481,0,0,1-1.708,6.737l-3.8-.725a30.793,30.793,0,0,1-7.076-2.265l-3.011-1.384v11.016c0,.025,0,.049,0,.075v23a4.635,4.635,0,0,1-4.075,4.65,4.537,4.537,0,0,1-3.477-1.152,4.591,4.591,0,0,1-.579-.637,4.511,4.511,0,0,1-3.625,1.81Zm-2.7-27.684v23.014a2.822,2.822,0,0,0,2.444,2.858,2.714,2.714,0,0,0,2.984-2.7.9.9,0,1,1,1.8,0,2.715,2.715,0,0,0,2.983,2.7,2.823,2.823,0,0,0,2.445-2.858v-22.939c0-.025,0-.05,0-.075v-12.485a.9.9,0,0,1,1.276-.818l4.288,1.972a29.016,29.016,0,0,0,6.661,2.132l3.8.725a1.681,1.681,0,0,0,.824-3.253l-6.649-2.113a.9.9,0,0,1-.28-.147l-6.272-4.883a4.554,4.554,0,0,0-2.725-1.017h-14.482a4.851,4.851,0,0,0-4.847,4.846v15.166a1.972,1.972,0,0,0,.647,1.461,1.946,1.946,0,0,0,1.523.5,2.058,2.058,0,0,0,1.777-2.089.9.9,0,0,1,1.8,0Z" transform="translate(0 -11.01)" fill="#ae2a00"/><path d="M3339.688,1433.625h-14.459a.9.9,0,0,1,0-1.8h14.459a.9.9,0,0,1,0,1.8Z" transform="translate(-4.036 -11.01)" fill="#ae2a00"/><path d="M3325.229,1460.243a.9.9,0,0,1-.9-.9v-12.485a.9.9,0,1,1,1.8,0v12.485A.9.9,0,0,1,3325.229,1460.243Z" transform="translate(-4.036 -16.84)" fill="#ae2a00"/><path d="M3334.127,1420.144a5.755,5.755,0,1,1,5.754-5.755A5.763,5.763,0,0,1,3334.127,1420.144Zm0-9.709a3.954,3.954,0,1,0,3.954,3.954A3.958,3.958,0,0,0,3334.127,1410.435Z" transform="translate(-5.704 -1.445)" fill="#ae2a00"/><path d="M3374.957,1490.464a.9.9,0,0,1-.9-.9V1455.19a.9.9,0,1,1,1.8,0v34.374A.9.9,0,0,1,3374.957,1490.464Z" transform="translate(-24.549 -20.278)" fill="#ae2a00"/><path d="M3374.957,1430.351a.9.9,0,0,1-.9-.9v-23.418a.9.9,0,1,1,1.8,0v23.418A.9.9,0,0,1,3374.957,1430.351Z" transform="translate(-24.549)" fill="#ae2a00"/><path d="M3379.009,1419.839a8.236,8.236,0,0,1-4.535-1.318.9.9,0,0,1-.418-.76v-10.147a.9.9,0,0,1,1.381-.76c2.853,1.8,5.774.88,8.866-.1,3.348-1.059,6.811-2.157,10.371.1a.9.9,0,0,1,.419.76v10.147a.9.9,0,0,1-1.382.76c-2.852-1.8-5.772-.881-8.865.1A19.684,19.684,0,0,1,3379.009,1419.839Zm-3.153-2.594c2.721,1.47,5.507.587,8.447-.343,2.914-.921,5.915-1.871,8.989-.618v-8.155c-2.718-1.468-5.505-.587-8.446.343-2.914.922-5.917,1.87-8.99.618Z" transform="translate(-24.549 -0.166)" fill="#ae2a00"/></g></svg>