<svg xmlns="http://www.w3.org/2000/svg" width="71.164" height="45.289" viewBox="0 0 71.164 45.289"><g transform="translate(-2154.407 -1432.993)"><g transform="translate(2154.407 1432.993)"><g transform="translate(16.839)"><path d="M2225.452,1478.282H2189.7a.865.865,0,0,1-.866-.866v-43.556a.866.866,0,0,1,.866-.866h35.754a.866.866,0,0,1,.866.866v43.556A.865.865,0,0,1,2225.452,1478.282Zm-34.887-1.732h34.022v-41.825h-34.022Z" transform="translate(-2188.832 -1432.993)" fill="#ae2a00"/><g transform="translate(5.582 4.835)"><g transform="translate(20.048)"><path d="M2246.635,1448.6h-4.542a.866.866,0,0,1-.866-.866v-3.988a.866.866,0,0,1,.866-.866h4.542a.866.866,0,0,1,.866.866v3.988A.866.866,0,0,1,2246.635,1448.6Zm-3.675-1.732h2.809v-2.256h-2.809Z" transform="translate(-2241.228 -1442.878)" fill="#ae2a00"/></g><g transform="translate(10.024)"><path d="M2226.143,1448.6H2221.6a.866.866,0,0,1-.866-.866v-3.988a.866.866,0,0,1,.866-.866h4.541a.866.866,0,0,1,.866.866v3.988A.866.866,0,0,1,2226.143,1448.6Zm-3.675-1.732h2.809v-2.256h-2.809Z" transform="translate(-2220.736 -1442.878)" fill="#ae2a00"/></g><path d="M2205.65,1448.6h-4.541a.866.866,0,0,1-.866-.866v-3.988a.866.866,0,0,1,.866-.866h4.541a.866.866,0,0,1,.865.866v3.988A.866.866,0,0,1,2205.65,1448.6Zm-3.675-1.732h2.809v-2.256h-2.809Z" transform="translate(-2200.243 -1442.878)" fill="#ae2a00"/></g><g transform="translate(5.582 14.317)"><g transform="translate(20.048)"><path d="M2246.635,1467.98h-4.542a.866.866,0,0,1-.866-.866v-3.988a.866.866,0,0,1,.866-.866h4.542a.866.866,0,0,1,.866.866v3.988A.866.866,0,0,1,2246.635,1467.98Zm-3.675-1.732h2.809v-2.256h-2.809Z" transform="translate(-2241.228 -1462.261)" fill="#ae2a00"/></g><g transform="translate(10.024)"><path d="M2226.143,1467.98H2221.6a.866.866,0,0,1-.866-.866v-3.988a.866.866,0,0,1,.866-.866h4.541a.866.866,0,0,1,.866.866v3.988A.866.866,0,0,1,2226.143,1467.98Zm-3.675-1.732h2.809v-2.256h-2.809Z" transform="translate(-2220.736 -1462.261)" fill="#ae2a00"/></g><path d="M2205.65,1467.98h-4.541a.866.866,0,0,1-.866-.866v-3.988a.866.866,0,0,1,.866-.866h4.541a.866.866,0,0,1,.865.866v3.988A.866.866,0,0,1,2205.65,1467.98Zm-3.675-1.732h2.809v-2.256h-2.809Z" transform="translate(-2200.243 -1462.261)" fill="#ae2a00"/></g><g transform="translate(5.582 23.798)"><g transform="translate(20.048)"><path d="M2246.635,1487.363h-4.542a.866.866,0,0,1-.866-.866v-3.987a.866.866,0,0,1,.866-.866h4.542a.866.866,0,0,1,.866.866v3.987A.866.866,0,0,1,2246.635,1487.363Zm-3.675-1.731h2.809v-2.255h-2.809Z" transform="translate(-2241.228 -1481.644)" fill="#ae2a00"/></g><g transform="translate(10.024)"><path d="M2226.143,1487.363H2221.6a.865.865,0,0,1-.866-.866v-3.987a.866.866,0,0,1,.866-.866h4.541a.866.866,0,0,1,.866.866v3.987A.866.866,0,0,1,2226.143,1487.363Zm-3.675-1.731h2.809v-2.255h-2.809Z" transform="translate(-2220.736 -1481.644)" fill="#ae2a00"/></g><path d="M2205.65,1487.363h-4.541a.866.866,0,0,1-.866-.866v-3.987a.866.866,0,0,1,.866-.866h4.541a.866.866,0,0,1,.865.866v3.987A.865.865,0,0,1,2205.65,1487.363Zm-3.675-1.731h2.809v-2.255h-2.809Z" transform="translate(-2200.243 -1481.644)" fill="#ae2a00"/></g><g transform="translate(5.582 33.28)"><g transform="translate(20.048)"><path d="M2246.635,1506.746h-4.542a.866.866,0,0,1-.866-.866v-3.987a.866.866,0,0,1,.866-.866h4.542a.866.866,0,0,1,.866.866v3.987A.866.866,0,0,1,2246.635,1506.746Zm-3.675-1.732h2.809v-2.256h-2.809Z" transform="translate(-2241.228 -1501.027)" fill="#ae2a00"/></g><g transform="translate(10.024)"><path d="M2226.143,1513.036H2221.6a.865.865,0,0,1-.866-.866v-10.277a.865.865,0,0,1,.866-.866h4.541a.866.866,0,0,1,.866.866v10.277A.866.866,0,0,1,2226.143,1513.036Zm-3.675-1.732h2.809v-8.546h-2.809Z" transform="translate(-2220.736 -1501.027)" fill="#ae2a00"/></g><path d="M2205.65,1506.746h-4.541a.866.866,0,0,1-.866-.866v-3.987a.866.866,0,0,1,.866-.866h4.541a.865.865,0,0,1,.865.866v3.987A.866.866,0,0,1,2205.65,1506.746Zm-3.675-1.732h2.809v-2.256h-2.809Z" transform="translate(-2200.243 -1501.027)" fill="#ae2a00"/></g></g><g transform="translate(0 43.557)"><path d="M2224.706,1523.769h-69.433a.866.866,0,0,1,0-1.732h69.433a.866.866,0,0,1,0,1.732Z" transform="translate(-2154.407 -1522.037)" fill="#ae2a00"/></g><g transform="translate(3.892 10.39)"><path d="M2163.229,1489.132a.865.865,0,0,1-.865-.866V1455.1a.865.865,0,0,1,.865-.866h12.948a.866.866,0,1,1,0,1.732h-12.082v32.3A.866.866,0,0,1,2163.229,1489.132Z" transform="translate(-2162.363 -1454.234)" fill="#ae2a00"/></g><g transform="translate(52.593 10.39)"><path d="M2275.738,1489.132a.866.866,0,0,1-.866-.866v-32.3H2262.79a.866.866,0,0,1,0-1.732h12.948a.866.866,0,0,1,.866.866v33.167A.866.866,0,0,1,2275.738,1489.132Z" transform="translate(-2261.924 -1454.234)" fill="#ae2a00"/></g><g transform="translate(56.797 14.317)"><path d="M2275.924,1467.98h-4.541a.866.866,0,0,1-.866-.866v-3.988a.866.866,0,0,1,.866-.866h4.541a.866.866,0,0,1,.866.866v3.988A.866.866,0,0,1,2275.924,1467.98Zm-3.675-1.732h2.81v-2.256h-2.81Z" transform="translate(-2270.517 -1462.261)" fill="#ae2a00"/><g transform="translate(0 9.481)"><path d="M2275.924,1487.363h-4.541a.865.865,0,0,1-.866-.866v-3.987a.866.866,0,0,1,.866-.866h4.541a.865.865,0,0,1,.866.866v3.987A.865.865,0,0,1,2275.924,1487.363Zm-3.675-1.731h2.81v-2.255h-2.81Z" transform="translate(-2270.517 -1481.644)" fill="#ae2a00"/></g><g transform="translate(0 18.963)"><path d="M2275.924,1506.746h-4.541a.866.866,0,0,1-.866-.866v-3.987a.865.865,0,0,1,.866-.866h4.541a.865.865,0,0,1,.866.866v3.987A.866.866,0,0,1,2275.924,1506.746Zm-3.675-1.732h2.81v-2.256h-2.81Z" transform="translate(-2270.517 -1501.027)" fill="#ae2a00"/></g></g><g transform="translate(8.147 14.317)"><path d="M2176.47,1467.98h-4.541a.866.866,0,0,1-.866-.866v-3.988a.866.866,0,0,1,.866-.866h4.541a.866.866,0,0,1,.866.866v3.988A.866.866,0,0,1,2176.47,1467.98Zm-3.676-1.732h2.81v-2.256h-2.81Z" transform="translate(-2171.063 -1462.261)" fill="#ae2a00"/><g transform="translate(0 9.481)"><path d="M2176.47,1487.363h-4.541a.866.866,0,0,1-.866-.866v-3.987a.866.866,0,0,1,.866-.866h4.541a.865.865,0,0,1,.866.866v3.987A.865.865,0,0,1,2176.47,1487.363Zm-3.676-1.731h2.81v-2.255h-2.81Z" transform="translate(-2171.063 -1481.644)" fill="#ae2a00"/></g><g transform="translate(0 18.963)"><path d="M2176.47,1506.746h-4.541a.866.866,0,0,1-.866-.866v-3.987a.866.866,0,0,1,.866-.866h4.541a.865.865,0,0,1,.866.866v3.987A.866.866,0,0,1,2176.47,1506.746Zm-3.676-1.732h2.81v-2.256h-2.81Z" transform="translate(-2171.063 -1501.027)" fill="#ae2a00"/></g></g></g></g></svg>