<svg xmlns="http://www.w3.org/2000/svg" width="34.32" height="45.289" viewBox="0 0 34.32 45.289"><g transform="translate(-1048.275 -1014.236)"><g transform="translate(1048.275 1014.236)"><g transform="translate(0)"><g transform="translate(0)"><path d="M1056.723,1023.284h-7.848a.6.6,0,0,1-.424-1.024l7.848-7.848a.6.6,0,0,1,1.025.425v7.848A.6.6,0,0,1,1056.723,1023.284Zm-6.4-1.2h5.8v-5.8Z" transform="translate(-1048.275 -1014.236)" fill="#ae2a00"/></g><g transform="translate(0 0)"><path d="M1081.995,1059.525h-33.12a.6.6,0,0,1-.6-.6v-36.241a.6.6,0,0,1,.176-.424l7.848-7.848a.6.6,0,0,1,.424-.175h25.272a.6.6,0,0,1,.6.6v44.088A.6.6,0,0,1,1081.995,1059.525Zm-32.52-1.2h31.92v-42.888h-24.423l-7.5,7.5Z" transform="translate(-1048.275 -1014.237)" fill="#ae2a00"/></g><g transform="translate(5.991 13.281)"><g transform="translate(6.243)"><path d="M1095.008,1049.347h-14.894a.6.6,0,0,1,0-1.2h14.894a.6.6,0,0,1,0,1.2Z" transform="translate(-1079.514 -1048.147)" fill="#ae2a00"/></g><g transform="translate(0 7.852)"><path d="M1085.31,1069.4h-21.137a.6.6,0,1,1,0-1.2h21.137a.6.6,0,1,1,0,1.2Z" transform="translate(-1063.573 -1068.197)" fill="#ae2a00"/></g><g transform="translate(0 15.705)"><path d="M1085.31,1089.447h-21.137a.6.6,0,0,1,0-1.2h21.137a.6.6,0,0,1,0,1.2Z" transform="translate(-1063.573 -1088.247)" fill="#ae2a00"/></g><g transform="translate(0 23.557)"><path d="M1077.639,1109.5h-13.466a.6.6,0,0,1,0-1.2h13.466a.6.6,0,0,1,0,1.2Z" transform="translate(-1063.573 -1108.298)" fill="#ae2a00"/></g></g></g></g></g></svg>